<svg xmlns="http://www.w3.org/2000/svg" width="800" height="450" viewBox="0 0 800 450">
  <rect width="800" height="450" fill="#121317" />
  <g stroke="#1D1F26" stroke-width="1">
    <path d="M0 112.5 H800" />
    <path d="M0 225 H800" />
    <path d="M0 337.5 H800" />
    <path d="M200 0 V450" />
    <path d="M400 0 V450" />
    <path d="M600 0 V450" />
  </g>
  <g stroke="#2A2D36" stroke-width="1.5" fill="none">
    <path d="M690 80 L580 130 L640 220" />
    <path d="M580 130 L480 110" />
    <path d="M640 220 L560 300 L660 340" />
    <path d="M480 110 L500 220 L560 300" />
    <path d="M500 220 L400 260" />
    <path d="M660 340 L580 380" />
  </g>
  <g fill="#5FD4FF">
    <circle cx="580" cy="130" r="5" />
    <circle cx="500" cy="220" r="4" />
    <circle cx="660" cy="340" r="4" />
  </g>
  <g fill="#4A4E59">
    <circle cx="690" cy="80" r="3" />
    <circle cx="640" cy="220" r="3" />
    <circle cx="480" cy="110" r="3" />
    <circle cx="560" cy="300" r="3" />
    <circle cx="400" cy="260" r="3" />
    <circle cx="580" cy="380" r="3" />
  </g>
  <text x="270" y="215" font-family="'Geist Mono','JetBrains Mono',monospace" font-size="34" font-weight="600" letter-spacing="3" fill="#F2F3F5" text-anchor="middle">PURRSTATION</text>
  <text x="270" y="248" font-family="'Geist Mono','JetBrains Mono',monospace" font-size="13" fill="#93969F" text-anchor="middle">real-time IoT monitoring dashboard</text>
  <text x="270" y="286" font-family="'Geist Mono','JetBrains Mono',monospace" font-size="11" letter-spacing="2" fill="#5FD4FF" opacity="0.75" text-anchor="middle">PREVIEW</text>
</svg>
